<svg width="341" height="37" viewBox="0 0 341 37" fill="none" xmlns="http://www.w3.org/2000/svg">
<g clip-path="url(#clip0_1804_6189)">
<rect width="331" height="37" rx="18.5" fill="#65E99F"/>
<rect x="151" width="190" height="37" rx="18.5" fill="#41D481"/>
<g clip-path="url(#clip1_1804_6189)">
<path d="M31.48 15.464C31.48 16.328 31.256 17.0853 30.808 17.736H30.824L27.336 23H24.808L27.304 19.352C26.1413 19.3413 25.192 18.9733 24.456 18.248C23.7307 17.5227 23.368 16.5947 23.368 15.464C23.368 14.312 23.7413 13.3787 24.488 12.664C25.2453 11.9387 26.2213 11.576 27.416 11.576C28.6107 11.576 29.5867 11.9387 30.344 12.664C31.1013 13.3893 31.48 14.3227 31.48 15.464ZM25.56 15.464C25.56 16.008 25.736 16.4507 26.088 16.792C26.44 17.1227 26.8827 17.288 27.416 17.288C27.9707 17.288 28.4187 17.1227 28.76 16.792C29.112 16.4507 29.288 16.008 29.288 15.464C29.288 14.92 29.112 14.4827 28.76 14.152C28.4187 13.8213 27.9707 13.656 27.416 13.656C26.8827 13.656 26.44 13.8267 26.088 14.168C25.736 14.4987 25.56 14.9307 25.56 15.464ZM40.3237 15.464C40.3237 16.328 40.0997 17.0853 39.6517 17.736H39.6677L36.1797 23H33.6517L36.1477 19.352C34.985 19.3413 34.0357 18.9733 33.2997 18.248C32.5743 17.5227 32.2117 16.5947 32.2117 15.464C32.2117 14.312 32.585 13.3787 33.3317 12.664C34.089 11.9387 35.065 11.576 36.2597 11.576C37.4543 11.576 38.4303 11.9387 39.1877 12.664C39.945 13.3893 40.3237 14.3227 40.3237 15.464ZM34.4037 15.464C34.4037 16.008 34.5797 16.4507 34.9317 16.792C35.2837 17.1227 35.7263 17.288 36.2597 17.288C36.8143 17.288 37.2623 17.1227 37.6037 16.792C37.9557 16.4507 38.1317 16.008 38.1317 15.464C38.1317 14.92 37.9557 14.4827 37.6037 14.152C37.2623 13.8213 36.8143 13.656 36.2597 13.656C35.7263 13.656 35.2837 13.8267 34.9317 14.168C34.5797 14.4987 34.4037 14.9307 34.4037 15.464ZM47.6954 17.176C48.73 17.7947 49.2474 18.696 49.2474 19.88C49.2474 20.9147 48.8847 21.7307 48.1594 22.328C47.4447 22.9253 46.4687 23.224 45.2314 23.224C43.9834 23.224 43.002 22.9253 42.2874 22.328C41.5727 21.7307 41.2154 20.9147 41.2154 19.88C41.2154 18.7067 41.7274 17.8053 42.7514 17.176C41.9727 16.6213 41.5834 15.848 41.5834 14.856C41.5834 13.8213 41.93 13.016 42.6234 12.44C43.3274 11.864 44.1967 11.576 45.2314 11.576C46.2767 11.576 47.1407 11.864 47.8234 12.44C48.5167 13.016 48.8634 13.8213 48.8634 14.856C48.8634 15.848 48.474 16.6213 47.6954 17.176ZM46.6714 14.968C46.6714 14.5627 46.538 14.2427 46.2714 14.008C46.0047 13.7733 45.658 13.656 45.2314 13.656C44.8047 13.656 44.458 13.7733 44.1914 14.008C43.9247 14.2427 43.7914 14.5627 43.7914 14.968C43.7914 15.384 43.9247 15.7093 44.1914 15.944C44.458 16.1787 44.8047 16.296 45.2314 16.296C45.658 16.296 46.0047 16.1787 46.2714 15.944C46.538 15.7093 46.6714 15.384 46.6714 14.968ZM46.5594 20.728C46.89 20.4507 47.0554 20.072 47.0554 19.592C47.0554 19.112 46.89 18.7387 46.5594 18.472C46.2287 18.1947 45.786 18.056 45.2314 18.056C44.6767 18.056 44.234 18.1947 43.9034 18.472C43.5727 18.7387 43.4074 19.112 43.4074 19.592C43.4074 20.072 43.5727 20.4507 43.9034 20.728C44.234 21.0053 44.6767 21.144 45.2314 21.144C45.786 21.144 46.2287 21.0053 46.5594 20.728ZM58.261 15.464C58.261 16.328 58.037 17.0853 57.589 17.736H57.605L54.117 23H51.589L54.085 19.352C52.9224 19.3413 51.973 18.9733 51.237 18.248C50.5117 17.5227 50.149 16.5947 50.149 15.464C50.149 14.312 50.5224 13.3787 51.269 12.664C52.0264 11.9387 53.0024 11.576 54.197 11.576C55.3917 11.576 56.3677 11.9387 57.125 12.664C57.8824 13.3893 58.261 14.3227 58.261 15.464ZM52.341 15.464C52.341 16.008 52.517 16.4507 52.869 16.792C53.221 17.1227 53.6637 17.288 54.197 17.288C54.7517 17.288 55.1997 17.1227 55.541 16.792C55.893 16.4507 56.069 16.008 56.069 15.464C56.069 14.92 55.893 14.4827 55.541 14.152C55.1997 13.8213 54.7517 13.656 54.197 13.656C53.6637 13.656 53.221 13.8267 52.869 14.168C52.517 14.4987 52.341 14.9307 52.341 15.464ZM58.8007 12.84L61.7447 11.8H63.6647V23H61.4567V14.136L59.3447 14.728L58.8007 12.84ZM68.9881 12.84L71.9321 11.8H73.8521V23H71.6441V14.136L69.5321 14.728L68.9881 12.84ZM82.0395 11.8L79.5595 15.432C80.7222 15.464 81.6662 15.8427 82.3915 16.568C83.1169 17.2933 83.4795 18.2107 83.4795 19.32C83.4795 20.4613 83.1009 21.4 82.3435 22.136C81.5862 22.8613 80.6102 23.224 79.4155 23.224C78.2209 23.224 77.2449 22.8613 76.4875 22.136C75.7409 21.4213 75.3675 20.4827 75.3675 19.32C75.3675 18.4773 75.5862 17.7253 76.0235 17.064L79.5115 11.8H82.0395ZM81.2875 19.32C81.2875 18.7867 81.1115 18.3547 80.7595 18.024C80.4075 17.6827 79.9595 17.512 79.4155 17.512C78.8715 17.512 78.4235 17.6773 78.0715 18.008C77.7302 18.3387 77.5595 18.776 77.5595 19.32C77.5595 19.864 77.7302 20.3067 78.0715 20.648C78.4235 20.9787 78.8715 21.144 79.4155 21.144C79.9595 21.144 80.4075 20.9787 80.7595 20.648C81.1115 20.3067 81.2875 19.864 81.2875 19.32ZM90.8832 11.8L88.4032 15.432C89.5659 15.464 90.5099 15.8427 91.2352 16.568C91.9605 17.2933 92.3232 18.2107 92.3232 19.32C92.3232 20.4613 91.9445 21.4 91.1872 22.136C90.4299 22.8613 89.4539 23.224 88.2592 23.224C87.0645 23.224 86.0885 22.8613 85.3312 22.136C84.5845 21.4213 84.2112 20.4827 84.2112 19.32C84.2112 18.4773 84.4299 17.7253 84.8672 17.064L88.3552 11.8H90.8832ZM90.1312 19.32C90.1312 18.7867 89.9552 18.3547 89.6032 18.024C89.2512 17.6827 88.8032 17.512 88.2592 17.512C87.7152 17.512 87.2672 17.6773 86.9152 18.008C86.5739 18.3387 86.4032 18.776 86.4032 19.32C86.4032 19.864 86.5739 20.3067 86.9152 20.648C87.2672 20.9787 87.7152 21.144 88.2592 21.144C88.8032 21.144 89.2512 20.9787 89.6032 20.648C89.9552 20.3067 90.1312 19.864 90.1312 19.32Z" fill="black"/>
<path d="M171.2 11.5H178.7V22H177.65V12.49H172.25V22H171.2V11.5ZM187.237 21.055C186.467 21.805 185.537 22.18 184.447 22.18C183.337 22.18 182.402 21.805 181.642 21.055C180.882 20.295 180.502 19.36 180.502 18.25C180.502 17.14 180.882 16.21 181.642 15.46C182.402 14.7 183.337 14.32 184.447 14.32C185.547 14.32 186.477 14.7 187.237 15.46C188.007 16.21 188.392 17.14 188.392 18.25C188.392 19.35 188.007 20.285 187.237 21.055ZM182.347 20.365C182.917 20.935 183.617 21.22 184.447 21.22C185.277 21.22 185.977 20.935 186.547 20.365C187.117 19.775 187.402 19.07 187.402 18.25C187.402 17.42 187.117 16.72 186.547 16.15C185.977 15.57 185.277 15.28 184.447 15.28C183.617 15.28 182.917 15.57 182.347 16.15C181.777 16.72 181.492 17.42 181.492 18.25C181.492 19.07 181.777 19.775 182.347 20.365ZM192.089 18.1L196.109 22H194.789L191.039 18.385V22H190.049V14.5H191.039V17.815L194.609 14.5H195.959L192.089 18.1ZM202.999 21.055C202.229 21.805 201.299 22.18 200.209 22.18C199.099 22.18 198.164 21.805 197.404 21.055C196.644 20.295 196.264 19.36 196.264 18.25C196.264 17.14 196.644 16.21 197.404 15.46C198.164 14.7 199.099 14.32 200.209 14.32C201.309 14.32 202.239 14.7 202.999 15.46C203.769 16.21 204.154 17.14 204.154 18.25C204.154 19.35 203.769 20.285 202.999 21.055ZM198.109 20.365C198.679 20.935 199.379 21.22 200.209 21.22C201.039 21.22 201.739 20.935 202.309 20.365C202.879 19.775 203.164 19.07 203.164 18.25C203.164 17.42 202.879 16.72 202.309 16.15C201.739 15.57 201.039 15.28 200.209 15.28C199.379 15.28 198.679 15.57 198.109 16.15C197.539 16.72 197.254 17.42 197.254 18.25C197.254 19.07 197.539 19.775 198.109 20.365ZM209.388 18.145C210.258 18.475 210.693 19.075 210.693 19.945C210.693 20.575 210.448 21.105 209.958 21.535C209.488 21.965 208.798 22.18 207.888 22.18C206.368 22.18 205.378 21.58 204.918 20.38L205.758 19.885C206.078 20.775 206.788 21.22 207.888 21.22C208.458 21.22 208.903 21.1 209.223 20.86C209.543 20.61 209.703 20.285 209.703 19.885C209.703 19.525 209.573 19.24 209.313 19.03C209.053 18.81 208.703 18.7 208.263 18.7H207.168V17.74H207.963C208.393 17.74 208.728 17.635 208.968 17.425C209.218 17.205 209.343 16.905 209.343 16.525C209.343 16.165 209.193 15.87 208.893 15.64C208.603 15.4 208.218 15.28 207.738 15.28C206.808 15.28 206.183 15.655 205.863 16.405L205.038 15.925C205.538 14.855 206.438 14.32 207.738 14.32C208.538 14.32 209.168 14.53 209.628 14.95C210.098 15.36 210.333 15.865 210.333 16.465C210.333 17.235 210.018 17.795 209.388 18.145ZM218.647 15.97V14.5H219.637V22H218.647V20.53C217.957 21.63 216.947 22.18 215.617 22.18C214.547 22.18 213.632 21.8 212.872 21.04C212.122 20.28 211.747 19.35 211.747 18.25C211.747 17.15 212.122 16.22 212.872 15.46C213.632 14.7 214.547 14.32 215.617 14.32C216.947 14.32 217.957 14.87 218.647 15.97ZM213.592 20.365C214.162 20.935 214.862 21.22 215.692 21.22C216.522 21.22 217.222 20.935 217.792 20.365C218.362 19.775 218.647 19.07 218.647 18.25C218.647 17.42 218.362 16.72 217.792 16.15C217.222 15.57 216.522 15.28 215.692 15.28C214.862 15.28 214.162 15.57 213.592 16.15C213.022 16.72 212.737 17.42 212.737 18.25C212.737 19.07 213.022 19.775 213.592 20.365ZM220.834 14.5H227.134V15.46H224.479V22H223.489V15.46H220.834V14.5ZM229.33 17.35H231.385C232.075 17.35 232.665 17.57 233.155 18.01C233.645 18.44 233.89 18.995 233.89 19.675C233.89 20.365 233.645 20.925 233.155 21.355C232.685 21.785 232.095 22 231.385 22H228.34V14.5H229.33V17.35ZM229.33 21.04H231.385C231.815 21.04 232.175 20.915 232.465 20.665C232.755 20.405 232.9 20.075 232.9 19.675C232.9 19.275 232.755 18.95 232.465 18.7C232.175 18.44 231.815 18.31 231.385 18.31H229.33V21.04ZM239.136 14.5H245.436V22H244.446V15.46H240.126V22H239.136V14.5ZM253.814 21.055C253.044 21.805 252.114 22.18 251.024 22.18C249.914 22.18 248.979 21.805 248.219 21.055C247.459 20.295 247.079 19.36 247.079 18.25C247.079 17.14 247.459 16.21 248.219 15.46C248.979 14.7 249.914 14.32 251.024 14.32C252.124 14.32 253.054 14.7 253.814 15.46C254.584 16.21 254.969 17.14 254.969 18.25C254.969 19.35 254.584 20.285 253.814 21.055ZM248.924 20.365C249.494 20.935 250.194 21.22 251.024 21.22C251.854 21.22 252.554 20.935 253.124 20.365C253.694 19.775 253.979 19.07 253.979 18.25C253.979 17.42 253.694 16.72 253.124 16.15C252.554 15.57 251.854 15.28 251.024 15.28C250.194 15.28 249.494 15.57 248.924 16.15C248.354 16.72 248.069 17.42 248.069 18.25C248.069 19.07 248.354 19.775 248.924 20.365ZM257.113 14.5H262.483V22H261.493V15.46H258.103V18.805C258.103 20.055 257.863 20.915 257.383 21.385C256.913 21.855 256.263 22.06 255.433 22V21.07C256.013 21.13 256.438 20.99 256.708 20.65C256.978 20.31 257.113 19.695 257.113 18.805V14.5ZM265.57 17.35H267.625C268.315 17.35 268.905 17.57 269.395 18.01C269.885 18.44 270.13 18.995 270.13 19.675C270.13 20.365 269.885 20.925 269.395 21.355C268.925 21.785 268.335 22 267.625 22H264.58V14.5H265.57V17.35ZM265.57 21.04H267.625C268.055 21.04 268.415 20.915 268.705 20.665C268.995 20.405 269.14 20.075 269.14 19.675C269.14 19.275 268.995 18.95 268.705 18.7C268.415 18.44 268.055 18.31 267.625 18.31H265.57V21.04ZM276.936 17.77V14.5H277.926V22H276.936V18.73H272.616V22H271.626V14.5H272.616V17.77H276.936ZM286.305 21.055C285.535 21.805 284.605 22.18 283.515 22.18C282.405 22.18 281.47 21.805 280.71 21.055C279.95 20.295 279.57 19.36 279.57 18.25C279.57 17.14 279.95 16.21 280.71 15.46C281.47 14.7 282.405 14.32 283.515 14.32C284.615 14.32 285.545 14.7 286.305 15.46C287.075 16.21 287.46 17.14 287.46 18.25C287.46 19.35 287.075 20.285 286.305 21.055ZM281.415 20.365C281.985 20.935 282.685 21.22 283.515 21.22C284.345 21.22 285.045 20.935 285.615 20.365C286.185 19.775 286.47 19.07 286.47 18.25C286.47 17.42 286.185 16.72 285.615 16.15C285.045 15.57 284.345 15.28 283.515 15.28C282.685 15.28 281.985 15.57 281.415 16.15C280.845 16.72 280.56 17.42 280.56 18.25C280.56 19.07 280.845 19.775 281.415 20.365ZM292.611 22.18C291.481 22.18 290.541 21.805 289.791 21.055C289.041 20.285 288.666 19.35 288.666 18.25C288.666 17.14 289.041 16.21 289.791 15.46C290.541 14.7 291.481 14.32 292.611 14.32C293.351 14.32 294.016 14.5 294.606 14.86C295.196 15.21 295.626 15.685 295.896 16.285L295.086 16.75C294.886 16.3 294.561 15.945 294.111 15.685C293.671 15.415 293.171 15.28 292.611 15.28C291.781 15.28 291.081 15.57 290.511 16.15C289.941 16.72 289.656 17.42 289.656 18.25C289.656 19.07 289.941 19.775 290.511 20.365C291.081 20.935 291.781 21.22 292.611 21.22C293.161 21.22 293.656 21.09 294.096 20.83C294.546 20.57 294.896 20.21 295.146 19.75L295.971 20.23C295.661 20.83 295.206 21.305 294.606 21.655C294.006 22.005 293.341 22.18 292.611 22.18ZM296.346 14.5H302.646V15.46H299.991V22H299.001V15.46H296.346V14.5ZM310.258 14.32C311.358 14.32 312.288 14.7 313.048 15.46C313.818 16.21 314.203 17.14 314.203 18.25C314.203 19.35 313.818 20.285 313.048 21.055C312.278 21.805 311.348 22.18 310.258 22.18C309.258 22.18 308.388 21.855 307.648 21.205C306.918 20.535 306.503 19.71 306.403 18.73H304.843V22H303.853V14.5H304.843V17.77H306.403C306.513 16.78 306.928 15.96 307.648 15.31C308.378 14.65 309.248 14.32 310.258 14.32ZM308.158 20.365C308.728 20.935 309.428 21.22 310.258 21.22C311.088 21.22 311.788 20.935 312.358 20.365C312.928 19.775 313.213 19.07 313.213 18.25C313.213 17.42 312.928 16.72 312.358 16.15C311.788 15.57 311.088 15.28 310.258 15.28C309.428 15.28 308.728 15.57 308.158 16.15C307.588 16.72 307.303 17.42 307.303 18.25C307.303 19.07 307.588 19.775 308.158 20.365Z" fill="black"/>
</g>
<path d="M104.355 17.379L106.266 17.211V18.891L104.355 18.744L105.51 20.214L104.082 21.096L103.179 19.332L102.276 21.096L100.869 20.214L102.003 18.744L100.113 18.891V17.211L102.003 17.379L100.869 15.888L102.276 15.006L103.179 16.77L104.082 15.006L105.51 15.888L104.355 17.379ZM114.822 17.379L116.733 17.211V18.891L114.822 18.744L115.977 20.214L114.549 21.096L113.646 19.332L112.743 21.096L111.336 20.214L112.47 18.744L110.58 18.891V17.211L112.47 17.379L111.336 15.888L112.743 15.006L113.646 16.77L114.549 15.006L115.977 15.888L114.822 17.379ZM125.289 17.379L127.2 17.211V18.891L125.289 18.744L126.444 20.214L125.016 21.096L124.113 19.332L123.21 21.096L121.803 20.214L122.937 18.744L121.047 18.891V17.211L122.937 17.379L121.803 15.888L123.21 15.006L124.113 16.77L125.016 15.006L126.444 15.888L125.289 17.379ZM135.757 17.379L137.668 17.211V18.891L135.757 18.744L136.912 20.214L135.484 21.096L134.581 19.332L133.678 21.096L132.271 20.214L133.405 18.744L131.515 18.891V17.211L133.405 17.379L132.271 15.888L133.678 15.006L134.581 16.77L135.484 15.006L136.912 15.888L135.757 17.379Z" fill="black"/>
</g>
<defs>
<clipPath id="clip0_1804_6189">
<rect width="341" height="37" fill="white"/>
</clipPath>
<clipPath id="clip1_1804_6189">
<rect width="294" height="19" fill="white" transform="translate(23 9)"/>
</clipPath>
</defs>
</svg>
